HIERARCHY
ROOT hip
{
  OFFSET 0 0 0
  CHANNELS 6 Xposition Yposition Zposition Zrotation Yrotation Xrotation
  JOINT abdomen
  {
    OFFSET 0 20.6881 -0.73152
    CHANNELS 3 Zrotation Xrotation Yrotation
    JOINT chest
    {
      OFFSET 0 11.7043 -0.48768
      CHANNELS 3 Zrotation Xrotation Yrotation
      JOINT neck
      {
        OFFSET 0 22.1894 -2.19456
        CHANNELS 3 Zrotation Xrotation Yrotation
        JOINT head
        {
          OFFSET -0.24384 7.07133 1.2192
          CHANNELS 3 Zrotation Xrotation Yrotation
          JOINT leftEye
          {
            OFFSET 4.14528 8.04674 8.04672
            CHANNELS 3 Zrotation Xrotation Yrotation
            End Site
            {
              OFFSET 1 0 0
            }
          }
          JOINT rightEye
          {
            OFFSET -3.6576 8.04674 8.04672
            CHANNELS 3 Zrotation Xrotation Yrotation
            End Site
            {
              OFFSET 1 0 0
            }
          }
        }
      }
      JOINT rCollar
      {
        OFFSET -2.68224 19.2634 -4.8768
        CHANNELS 3 Zrotation Xrotation Yrotation
        JOINT rShldr
        {
          OFFSET -8.77824 -1.95073 1.46304
          CHANNELS 3 Zrotation Xrotation Yrotation
          JOINT rForeArm
          {
            OFFSET -28.1742 -1.7115 0.48768
            CHANNELS 3 Zrotation Xrotation Yrotation
            JOINT rHand
            {
              OFFSET -22.5879 0.773209 7.07136
              CHANNELS 3 Zrotation Xrotation Yrotation
              JOINT rThumb1
              {
                OFFSET -1.2192 -0.487915 3.41376
                CHANNELS 3 Zrotation Xrotation Yrotation
                JOINT rThumb2
                {
                  OFFSET -3.37035 -0.52449 3.41376
                  CHANNELS 3 Zrotation Xrotation Yrotation
                  End Site
                  {
                    OFFSET -1.78271 -1.18214 1.43049
                  }
                }
              }
              JOINT rIndex1
              {
                OFFSET -7.75947 0.938293 5.60832
                CHANNELS 3 Zrotation Xrotation Yrotation
                JOINT rIndex2
                {
                  OFFSET -2.54057 -0.884171 1.56538
                  CHANNELS 3 Zrotation Xrotation Yrotation
                  End Site
                  {
                    OFFSET -1.62519 -0.234802 1.16502
                  }
                }
              }
              JOINT rMid1
              {
                OFFSET -8.24714 1.18213 3.41376
                CHANNELS 3 Zrotation Xrotation Yrotation
                JOINT rMid2
                {
                  OFFSET -3.10165 -0.590103 1.0647
                  CHANNELS 3 Zrotation Xrotation Yrotation
                  End Site
                  {
                    OFFSET -2.48547 -0.328903 0.83742
                  }
                }
              }
              JOINT rRing1
              {
                OFFSET -8.82822 0.546677 1.51678
                CHANNELS 3 Zrotation Xrotation Yrotation
                JOINT rRing2
                {
                  OFFSET -2.60934 -0.819778 -0.0198488
                  CHANNELS 3 Zrotation Xrotation Yrotation
                  End Site
                  {
                    OFFSET -2.33842 -0.294052 0.168128
                  }
                }
              }
              JOINT rPinky1
              {
                OFFSET -8.27202 -0.0477905 -0.4584
                CHANNELS 3 Zrotation Xrotation Yrotation
                JOINT rPinky2
                {
                  OFFSET -1.82734 -0.647385 -0.700984
                  CHANNELS 3 Zrotation Xrotation Yrotation
                  End Site
                  {
                    OFFSET -1.69225 -0.51767 -0.607171
                  }
                }
              }
            }
          }
        }
      }
      JOINT lCollar
      {
        OFFSET 2.68224 19.2634 -4.8768
        CHANNELS 3 Zrotation Xrotation Yrotation
        JOINT lShldr
        {
          OFFSET 8.77824 -1.95073 1.46304
          CHANNELS 3 Zrotation Xrotation Yrotation
          JOINT lForeArm
          {
            OFFSET 28.1742 -1.7115 0.48768
            CHANNELS 3 Zrotation Xrotation Yrotation
            JOINT lHand
            {
              OFFSET 22.5879 0.773209 7.07136
              CHANNELS 3 Zrotation Xrotation Yrotation
              JOINT lThumb1
              {
                OFFSET 1.2192 -0.487915 3.41376
                CHANNELS 3 Zrotation Xrotation Yrotation
                JOINT lThumb2
                {
                  OFFSET 3.37035 -0.52449 3.41376
                  CHANNELS 3 Zrotation Xrotation Yrotation
                  End Site
                  {
                    OFFSET 1.78271 -1.18214 1.43049
                  }
                }
              }
              JOINT lIndex1
              {
                OFFSET 7.75947 0.938293 5.60832
                CHANNELS 3 Zrotation Xrotation Yrotation
                JOINT lIndex2
                {
                  OFFSET 2.54057 -0.884171 1.56538
                  CHANNELS 3 Zrotation Xrotation Yrotation
                  End Site
                  {
                    OFFSET 1.62519 -0.234802 1.16502
                  }
                }
              }
              JOINT lMid1
              {
                OFFSET 8.24714 1.18213 3.41376
                CHANNELS 3 Zrotation Xrotation Yrotation
                JOINT lMid2
                {
                  OFFSET 3.10165 -0.590103 1.0647
                  CHANNELS 3 Zrotation Xrotation Yrotation
                  End Site
                  {
                    OFFSET 2.48547 -0.328903 0.83742
                  }
                }
              }
              JOINT lRing1
              {
                OFFSET 8.82822 0.546677 1.51678
                CHANNELS 3 Zrotation Xrotation Yrotation
                JOINT lRing2
                {
                  OFFSET 2.60934 -0.819778 -0.0198488
                  CHANNELS 3 Zrotation Xrotation Yrotation
                  End Site
                  {
                    OFFSET 2.33842 -0.294052 0.168128
                  }
                }
              }
              JOINT lPinky1
              {
                OFFSET 8.27202 -0.0477905 -0.4584
                CHANNELS 3 Zrotation Xrotation Yrotation
                JOINT lPinky2
                {
                  OFFSET 1.82734 -0.647385 -0.700984
                  CHANNELS 3 Zrotation Xrotation Yrotation
                  End Site
                  {
                    OFFSET 1.69225 -0.51767 -0.607171
                  }
                }
              }
            }
          }
        }
      }
    }
  }
  JOINT rButtock
  {
    OFFSET -8.77824 4.35084 1.2192
    CHANNELS 3 Zrotation Xrotation Yrotation
    JOINT rThigh
    {
      OFFSET 0 -1.70687 -2.19456
      CHANNELS 3 Zrotation Xrotation Yrotation
      JOINT rShin
      {
        OFFSET 0 -36.8199 0.73152
        CHANNELS 3 Zrotation Xrotation Yrotation
        JOINT rFoot
        {
          OFFSET 0.73152 -45.1104 -5.12064
          CHANNELS 3 Zrotation Xrotation Yrotation
          End Site
          {
            OFFSET -1.1221 -3.69964 12.103
          }
        }
      }
    }
  }
  JOINT lButtock
  {
    OFFSET 8.77824 4.35084 1.2192
    CHANNELS 3 Zrotation Xrotation Yrotation
    JOINT lThigh
    {
      OFFSET 0 -1.70687 -2.19456
      CHANNELS 3 Zrotation Xrotation Yrotation
      JOINT lShin
      {
        OFFSET 0 -36.8199 0.73152
        CHANNELS 3 Zrotation Xrotation Yrotation
        JOINT lFoot
        {
          OFFSET -0.73152 -45.1104 -5.12064
          CHANNELS 3 Zrotation Xrotation Yrotation
          End Site
          {
            OFFSET 1.1221 -3.69964 12.103
          }
        }
      }
    }
  }
}
MOTION
Frames:	4
Frame Time:	0.03333
-2.8466261915165334 40.87159927635701 39.538098275765435 -8.713798522949219 43.4656982421875 0.08900000154972076 -0.6338438987731934 7.466059684753418 12.203399658203125 -0.1173119768500328 -7.950550556182861 3.3839595317840576 -8.536608695983887 21.37099838256836 -17.55719757080078 14.26479721069336 -28.534198760986328 -31.582298278808594 -0.0 0.0 -0.0 -0.0 0.0 -0.0 -8.905552619127566e-14 3.0533323265580226e-13 4.007498543082133e-13 20.71619987487793 -29.47349739074707 45.821598052978516 -7.795108318328857 -2.9053399562835693 13.726699829101562 -2.245759963989258 38.51649856567383 6.422309875488281 -8.789780708839956e-11 -1.1456421367128655e-09 -3.29626298478658e-10 -1.5988010915179984e-10 -1.9909507376070223e-09 -5.665776181551507e-10 -8.789144412268968e-11 -1.1456421367128655e-09 -3.2963903828786556e-10 7.7309088706970215 5.474880218505859 0.41731396317481995 -8.789780708839956e-11 -1.1456484649841059e-09 -3.29626298478658e-10 2.9055399894714355 0.9651829600334167 0.10290198773145676 -8.789144412268968e-11 -1.1456484649841059e-09 -3.29626298478658e-10 10.27859878540039 0.73180091381073 0.025912299752235413 -8.790416311521554e-11 -1.1456484649841059e-09 -3.2961358642502603e-10 2.2216696739196777 -0.7334870100021362 -0.2089199721813202 -8.905552619127566e-14 3.0533323265580226e-13 3.943887588470779e-13 -108.93098449707031 46.2902946472168 48.88429641723633 27.821197509765625 -41.26899337768555 -86.22699737548828 7.1804094314575195 -57.89399719238281 12.943598747253418 1.085968537317683e-10 -2.431470302877159e-10 1.5225951055519715e-10 1.812089089892055e-10 -4.2089551288704286e-10 2.701117662873287e-10 1.0859049076605842e-10 -2.431470302877159e-10 1.5225951055519715e-10 -7.7309088706970215 5.474880218505859 -0.41731396317481995 1.085968537317683e-10 -2.431406742608999e-10 1.5225951055519715e-10 -2.9055399894714355 0.9651829600334167 -0.10290198773145676 1.0858412780034854e-10 -2.431406742608999e-10 1.5225951055519715e-10 -10.27859878540039 0.73180091381073 -0.025912299752235413 1.0860321669747819e-10 -2.431406742608999e-10 1.5225314065059337e-10 -2.2216696739196777 -0.7334870100021362 0.2089199721813202 -0.0 0.0 -0.0 9.157279968261719 -2.690009832382202 -9.546369552612305 -0.19198700785636902 41.050296783447266 1.6970500946044922 -20.27979850769043 -22.519502639770508 -36.37369918823242 -0.0 0.0 -0.0 -13.604598045349121 -59.066802978515625 -22.618600845336914 1.554610252380371 65.27959442138672 -1.7273999452590942 -0.957539975643158 -9.01526927947998 -4.95665979385376
-2.8567102487895966 40.7552333434675 39.74327446370955 -8.337400436401367 43.70099639892578 0.44979995489120483 -0.867830753326416 7.31751012802124 12.16719913482666 -0.11613999307155609 -7.937191009521484 3.369849681854248 -8.549399375915527 21.468198776245117 -17.584897994995117 14.28119945526123 -28.462900161743164 -31.639598846435547 -0.0 0.0 -0.0 -0.0 0.0 -0.0 -6.361109013662547e-15 6.361109013662547e-15 2.162777064645266e-13 20.7211971282959 -29.366201400756836 45.538597106933594 -7.841369152069092 -2.9292898178100586 13.8110990524292 -2.2702507972717285 38.68439865112305 6.461340427398682 1.392147841450253e-09 3.6240384027053096e-09 6.995311274682336e-11 2.402921639443889e-09 6.13093220636074e-09 7.707119664690509e-11 1.3921604979927338e-09 3.6240384027053096e-09 6.99403937542975e-11 7.7309088706970215 5.474880218505859 0.41731396317481995 1.392147841450253e-09 3.6240384027053096e-09 6.994675672000739e-11 2.9055399894714355 0.9651829600334167 0.10290198773145676 1.3921604979927338e-09 3.6240384027053096e-09 6.995311274682336e-11 10.27859878540039 0.73180091381073 0.025912299752235413 1.3921414021567102e-09 3.6240384027053096e-09 6.996583867824313e-11 2.2216696739196777 -0.7334870100021362 -0.2089199721813202 -6.361109013662547e-15 6.361109013662547e-15 2.162777064645266e-13 -108.843994140625 45.996395111083984 48.88269805908203 27.83179473876953 -41.222198486328125 -86.14129638671875 7.166379451751709 -57.86199951171875 12.927099227905273 1.3619897432093353e-09 -2.9888944097500314e-10 1.100026597589121e-10 2.338401028367798e-09 -5.797959889974891e-10 2.553921796266678e-10 1.3619770866668546e-09 -2.9888944097500314e-10 1.1000902272462199e-10 -7.7309088706970215 5.474880218505859 -0.41731396317481995 1.3619897432093353e-09 -2.9888944097500314e-10 1.100026597589121e-10 -2.9055399894714355 0.9651829600334167 -0.10290198773145676 1.3619770866668546e-09 -2.9888944097500314e-10 1.100026597589121e-10 -10.27859878540039 0.73180091381073 -0.025912299752235413 1.3620025107741185e-09 -2.9888305719261155e-10 1.100026597589121e-10 -2.2216696739196777 -0.7334870100021362 0.2089199721813202 -0.0 0.0 -0.0 9.311498641967773 -2.5351600646972656 -9.532519340515137 -0.18701796233654022 41.00959396362305 1.720019817352295 -20.85970115661621 -22.89900016784668 -36.9025993347168 -0.0 0.0 -0.0 -14.061899185180664 -59.12489318847656 -23.08930015563965 1.5927698612213135 65.66149139404297 -1.7671400308609009 -0.9591109156608582 -9.6560697555542 -4.746389389038086
-2.8787118289008347 40.65330301538882 39.96730095990669 -7.978000164031982 43.949100494384766 0.7907998561859131 -0.9647439122200012 7.31158971786499 12.060599327087402 -0.11400001496076584 -7.994189739227295 3.3376498222351074 -8.627859115600586 21.432897567749023 -17.556697845458984 14.279698371887207 -28.331098556518555 -31.594097137451172 -0.0 0.0 -0.0 -0.0 0.0 -0.0 2.544443605465019e-13 -6.551942148547152e-13 -6.742775825532843e-13 20.543296813964844 -29.095497131347656 45.3234977722168 -7.8921799659729 -2.9557297229766846 13.903800010681152 -2.256620168685913 38.5900993347168 6.439480304718018 2.2249313502697987e-09 7.974378490871459e-09 8.616821700613286e-10 3.857169694754248e-09 1.3610998550461773e-08 1.419952155856663e-09 2.2249408981878105e-09 7.974368720908842e-09 8.616758417900883e-10 7.7309088706970215 5.474880218505859 0.41731396317481995 2.2249313502697987e-09 7.974378490871459e-09 8.616758417900883e-10 2.9055399894714355 0.9651829600334167 0.10290198773145676 2.2249408981878105e-09 7.974368720908842e-09 8.616885538437202e-10 10.27859878540039 0.73180091381073 0.025912299752235413 2.2249313502697987e-09 7.974368720908842e-09 8.617012658973522e-10 2.2216696739196777 -0.7334870100021362 -0.2089199721813202 2.544443605465019e-13 -6.551942148547152e-13 -6.742775825532843e-13 -108.76099395751953 45.570701599121094 48.78129577636719 27.831199645996094 -41.22480010986328 -86.14599609375 7.127180099487305 -57.77079391479492 12.880799293518066 2.1049799681094328e-09 9.518064114644176e-10 -6.932782126156667e-10 3.653528368730008e-09 1.593158827084551e-09 -1.1037223357490689e-09 2.1049799681094328e-09 9.518031918176462e-10 -6.932718288332751e-10 -7.7309088706970215 5.474880218505859 -0.41731396317481995 2.1049799681094328e-09 9.517999721708748e-10 -6.932782126156667e-10 -2.9055399894714355 0.9651829600334167 -0.10290198773145676 2.104970420191421e-09 9.518064114644176e-10 -6.932782126156667e-10 -10.27859878540039 0.73180091381073 -0.025912299752235413 2.1049895160274446e-09 9.518064114644176e-10 -6.932845408869071e-10 -2.2216696739196777 -0.7334870100021362 0.2089199721813202 -0.0 0.0 -0.0 9.41156005859375 -2.5359997749328613 -9.709820747375488 -0.1878749579191208 41.22649383544922 1.7441498041152954 -21.26889991760254 -23.270898818969727 -37.166297912597656 -0.0 0.0 -0.0 -14.430298805236816 -59.24159622192383 -23.468198776245117 1.6388797760009766 66.10400390625 -1.814159870147705 -0.9410881996154785 -10.095600128173828 -4.532800197601318
-2.892061745461109 40.539341309087156 40.1800974911902 -7.889499664306641 44.210697174072266 0.9347000122070312 -0.9746139645576477 7.262340068817139 11.967199325561523 -0.09110608696937561 -8.008610725402832 3.3125298023223877 -8.668739318847656 21.486398696899414 -17.551998138427734 14.3006010055542 -28.37409782409668 -31.582799911499023 -0.0 0.0 -0.0 -0.0 0.0 -0.0 2.2263881547818914e-13 -5.152498436591935e-13 -1.125916308970798e-12 20.50629997253418 -29.00499725341797 45.11819839477539 -7.9144206047058105 -2.966439962387085 13.944199562072754 -2.283249855041504 38.77500534057617 6.482269763946533 1.9249097871210097e-09 6.792229889640566e-09 7.051352834963609e-10 3.330371312060265e-09 1.1579597725130952e-08 1.1619774031856878e-09 1.9249097871210097e-09 6.792229889640566e-09 7.051289552251205e-10 7.7309088706970215 5.474880218505859 0.41731396317481995 1.9249097871210097e-09 6.792229889640566e-09 7.051352834963609e-10 2.9055399894714355 0.9651829600334167 0.10290198773145676 1.9249193350390215e-09 6.792229889640566e-09 7.051416672787525e-10 10.27859878540039 0.73180091381073 0.025912299752235413 1.9249097871210097e-09 6.792229889640566e-09 7.051543793323845e-10 2.2216696739196777 -0.7334870100021362 -0.2089199721813202 2.2263881547818914e-13 -5.152498436591935e-13 -1.125916308970798e-12 -108.7649917602539 45.30439376831055 48.769996643066406 27.823699951171875 -41.257904052734375 -86.20669555664062 7.093809127807617 -57.69280242919922 12.841299057006836 2.8430309217952754e-09 1.5118510887646153e-09 -1.0959682050781794e-09 4.942479758796026e-09 2.538470544877214e-09 -1.7675167995889751e-09 2.843040469713287e-09 1.5118510887646153e-09 -1.095961876806939e-09 -7.7309088706970215 5.474880218505859 -0.41731396317481995 2.843040469713287e-09 1.5118384322221345e-09 -1.0959682050781794e-09 -2.9055399894714355 0.9651829600334167 -0.10290198773145676 2.8430309217952754e-09 1.5118510887646153e-09 -1.0959682050781794e-09 -10.27859878540039 0.73180091381073 -0.025912299752235413 2.843040469713287e-09 1.5118510887646153e-09 -1.0959682050781794e-09 -2.2216696739196777 -0.7334870100021362 0.2089199721813202 -0.0 0.0 -0.0 9.603020668029785 -2.468259811401367 -9.86985969543457 -0.18584606051445007 41.3129997253418 1.7678200006484985 -21.694198608398438 -23.612699508666992 -37.4850959777832 -0.0 0.0 -0.0 -14.791400909423828 -59.43980026245117 -23.887699127197266 1.6962800025939941 66.64199829101562 -1.8759597539901733 -0.9386000633239746 -10.522398948669434 -4.390969753265381
